<svg width="140.845" height="36.695" viewBox="0 0 140.845 36.695" xmlns="http://www.w3.org/2000/svg"><g id="svgGroup" stroke-linecap="round" fill-rule="evenodd" font-size="9pt" stroke="#000" stroke-width="0" fill="#ffffff" style="stroke:#000;stroke-width:0;fill:#ffffff"><path d="M 95.142 36.206 L 89.966 36.206 L 79.688 6.397 L 79.468 6.397 Q 79.524 7.163 79.594 8.359 A 307.596 307.596 0 0 1 79.639 9.131 A 175.298 175.298 0 0 1 79.73 10.925 A 213.285 213.285 0 0 1 79.81 12.842 Q 79.883 14.82 79.883 16.626 L 79.883 36.206 L 74.561 36.206 L 74.561 0.513 L 82.788 0.513 L 92.676 29.004 L 92.822 29.004 L 103.052 0.513 L 111.255 0.513 L 111.255 36.206 L 105.664 36.206 L 105.664 16.333 A 98.896 98.896 0 0 1 105.68 14.63 A 124.291 124.291 0 0 1 105.725 12.793 A 219.109 219.109 0 0 1 105.792 10.938 A 186.502 186.502 0 0 1 105.872 9.18 Q 105.957 7.471 106.006 6.445 L 105.811 6.445 L 95.142 36.206 Z M 140.845 31.25 L 140.845 36.206 L 120.63 36.206 L 120.63 0.513 L 140.845 0.513 L 140.845 5.445 L 126.489 5.445 L 126.489 15.137 L 139.942 15.137 L 139.942 20.044 L 126.489 20.044 L 126.489 31.25 L 140.845 31.25 Z M 44.824 34.79 L 44.824 29.273 A 34.673 34.673 0 0 0 47.431 30.286 A 44.305 44.305 0 0 0 49.683 30.994 Q 52.368 31.763 55.152 31.763 A 14.242 14.242 0 0 0 56.731 31.68 Q 57.511 31.593 58.173 31.414 A 6.952 6.952 0 0 0 58.924 31.165 A 5.676 5.676 0 0 0 60.035 30.581 A 4.097 4.097 0 0 0 61.157 29.456 A 4.438 4.438 0 0 0 61.859 27.451 A 5.621 5.621 0 0 0 61.89 26.856 A 4.888 4.888 0 0 0 61.714 25.518 A 3.91 3.91 0 0 0 61.035 24.17 Q 60.181 23.071 58.46 22.156 Q 57.276 21.527 55.683 20.834 A 66.86 66.86 0 0 0 54.151 20.191 A 28.355 28.355 0 0 1 50.794 18.579 A 13.573 13.573 0 0 1 47.949 16.455 Q 46.704 15.235 45.984 13.562 A 8.494 8.494 0 0 1 45.422 11.616 Q 45.274 10.742 45.265 9.752 A 14.155 14.155 0 0 1 45.264 9.619 A 10.53 10.53 0 0 1 45.562 7.056 A 8.162 8.162 0 0 1 46.717 4.444 A 8.911 8.911 0 0 1 49.829 1.634 A 11.171 11.171 0 0 1 50.818 1.148 A 13.503 13.503 0 0 1 54.031 0.228 A 18.55 18.55 0 0 1 57.007 0 A 24.006 24.006 0 0 1 60.712 0.277 A 20.822 20.822 0 0 1 62.293 0.586 A 27.093 27.093 0 0 1 67.163 2.246 L 65.308 6.958 A 35.027 35.027 0 0 0 62.35 5.889 A 29.786 29.786 0 0 0 61.048 5.518 Q 58.985 4.981 56.836 4.981 A 10.214 10.214 0 0 0 55.428 5.072 Q 54.7 5.174 54.085 5.387 A 5.654 5.654 0 0 0 53.687 5.542 A 5.033 5.033 0 0 0 52.614 6.165 A 3.954 3.954 0 0 0 51.721 7.117 A 4.014 4.014 0 0 0 51.097 8.809 A 5.205 5.205 0 0 0 51.05 9.522 A 5.257 5.257 0 0 0 51.187 10.751 A 3.907 3.907 0 0 0 51.819 12.146 A 5.22 5.22 0 0 0 52.638 13.025 Q 53.063 13.393 53.608 13.735 A 10.794 10.794 0 0 0 54.212 14.087 A 31.952 31.952 0 0 0 55.5 14.744 Q 56.128 15.048 56.853 15.372 A 71.313 71.313 0 0 0 58.399 16.04 A 38.32 38.32 0 0 1 60.813 17.132 Q 61.895 17.669 62.818 18.228 A 21.826 21.826 0 0 1 63.416 18.604 A 10.766 10.766 0 0 1 65.336 20.179 A 8.87 8.87 0 0 1 66.577 21.814 A 7.545 7.545 0 0 1 67.418 23.99 Q 67.628 24.916 67.667 25.987 A 13.712 13.712 0 0 1 67.676 26.489 A 10.903 10.903 0 0 1 67.335 29.272 A 8.728 8.728 0 0 1 66.126 31.958 A 9.292 9.292 0 0 1 63.045 34.796 A 11.887 11.887 0 0 1 61.682 35.474 A 14.745 14.745 0 0 1 58.512 36.389 Q 57.016 36.654 55.312 36.689 A 25.552 25.552 0 0 1 54.785 36.695 Q 52.832 36.695 51.05 36.475 Q 49.268 36.255 47.693 35.828 Q 46.118 35.401 44.824 34.79 Z M 23.926 20.923 L 23.926 23.999 L 5.884 23.999 A 12.706 12.706 0 0 0 6.154 26.384 Q 6.456 27.768 7.087 28.842 A 6.652 6.652 0 0 0 7.996 30.054 A 6.581 6.581 0 0 0 11.339 31.927 A 10.003 10.003 0 0 0 13.648 32.178 A 22.985 22.985 0 0 0 16.104 32.053 A 17.042 17.042 0 0 0 18.299 31.677 A 23.512 23.512 0 0 0 21.064 30.815 A 28.411 28.411 0 0 0 22.559 30.2 L 22.559 34.863 A 18.679 18.679 0 0 1 18.433 36.255 Q 16.713 36.615 14.435 36.68 A 36.145 36.145 0 0 1 13.404 36.695 A 17.334 17.334 0 0 1 9.775 36.331 A 13.492 13.492 0 0 1 6.409 35.144 Q 3.394 33.594 1.697 30.518 A 12.879 12.879 0 0 1 0.424 27.069 Q 0.08 25.517 0.015 23.719 A 23.469 23.469 0 0 1 0 22.876 A 22.382 22.382 0 0 1 0.254 19.412 Q 0.625 17.046 1.538 15.161 A 11.854 11.854 0 0 1 3.698 12.033 A 10.527 10.527 0 0 1 5.86 10.327 A 11.71 11.71 0 0 1 10.34 8.798 A 15.009 15.009 0 0 1 12.354 8.667 A 14.694 14.694 0 0 1 15.319 8.952 A 10.809 10.809 0 0 1 18.555 10.156 A 9.979 9.979 0 0 1 22.534 14.38 Q 23.907 17.076 23.926 20.817 A 20.716 20.716 0 0 1 23.926 20.923 Z M 40.65 25.22 L 28.052 25.22 L 28.052 20.361 L 40.65 20.361 L 40.65 25.22 Z M 6.006 19.898 L 18.311 19.898 A 11.142 11.142 0 0 0 18.136 18.015 A 8.441 8.441 0 0 0 17.639 16.309 A 5.585 5.585 0 0 0 16.614 14.667 A 5.104 5.104 0 0 0 15.686 13.867 Q 14.38 12.988 12.354 12.988 A 6.788 6.788 0 0 0 10.323 13.279 A 5.431 5.431 0 0 0 7.971 14.746 A 6.353 6.353 0 0 0 6.691 16.793 Q 6.159 18.121 6.006 19.898 Z" vector-effect="non-scaling-stroke"/></g></svg>